# xmcd
#
# Track frame offsets: 
#        150
#        22348
#        69767
#        91934
#        101477
#        142774
#        175928
#        208645
#        219485
#        272574
#
# Disc length: 3784 seconds
#
# Revision: 0
# Processed by: cddbd v1.5.2PL0 Copyright (c) Steve Scherf et al.
# Submitted via: ExactAudioCopy v1.0b3
#
DISCID=860ec60a
DTITLE=Santana - Originals
DYEAR=2012
DGENRE=Country
TTITLE0=Soul Sacrifice
TTITLE1=Jingo
TTITLE2=Evil Ways
TTITLE3=Shades Of Time
TTITLE4=Friend Neckbones And Some Homefries
TTITLE5=Peruasion
TTITLE6=As The Years Go Passing By
TTITLE7=Coconut Grove
TTITLE8=El Corazon Manda
TTITLE9=Acapulco Sunrise
EXTD=
EXTT0=
EXTT1=
EXTT2=
EXTT3=
EXTT4=
EXTT5=
EXTT6=
EXTT7=
EXTT8=
EXTT9=
PLAYORDER=
